<?xml version="1.0" encoding="UTF-8" standalone="no"?>
<!DOCTYPE svg PUBLIC "-//W3C//DTD SVG 20010904//EN"
              "http://www.w3.org/TR/2001/REC-SVG-20010904/DTD/svg10.dtd">

<svg xmlns="http://www.w3.org/2000/svg"
     width="6.58333in" height="4.63889in"
     viewBox="0 0 474 334">
  <path id="Sélection"
        fill="none" stroke="black" stroke-width="1"
        d="M 169.00,35.72
           C 176.69,41.11 183.42,45.50 181.79,56.00
             180.65,63.30 174.87,65.56 170.00,70.09
             164.27,75.43 161.49,79.95 158.31,87.00
             155.60,93.02 153.81,100.42 153.17,107.00
             152.30,116.01 154.78,127.19 140.00,130.06
             130.25,131.96 120.70,129.10 112.00,124.75
             93.52,115.51 79.77,98.70 76.87,78.00
             76.46,75.07 75.97,73.02 76.18,70.00
             77.88,46.22 94.58,25.66 118.00,20.46
             136.27,17.94 154.27,25.41 169.00,35.72 Z
           M 354.00,22.10
           C 375.82,29.65 391.70,55.07 388.71,78.00
             385.17,105.19 360.57,127.06 334.00,130.57
             325.42,131.70 316.42,128.59 313.14,120.00
             311.35,115.29 312.31,109.97 311.83,105.00
             311.14,97.88 308.93,90.39 305.73,84.00
             302.91,78.36 299.61,73.97 294.91,69.75
             290.79,66.06 285.57,63.58 283.80,58.00
             280.80,48.52 285.85,43.43 293.00,38.16
             304.96,29.33 317.35,23.15 332.00,20.44
             339.01,19.54 347.28,19.77 354.00,22.10 Z
           M 194.72,123.43
           C 199.64,127.94 198.04,136.41 191.96,138.99
             181.52,143.43 172.40,128.50 184.04,121.74
             187.84,120.82 191.60,120.57 194.72,123.43 Z
           M 281.87,122.74
           C 287.83,126.98 286.60,136.18 279.96,138.99
             269.28,143.52 260.76,128.31 272.04,121.74
             275.44,120.91 278.81,120.56 281.87,122.74 Z
           M 254.09,149.00
           C 259.99,164.51 261.60,185.14 242.00,190.96
             238.04,192.13 235.06,192.04 231.00,192.00
             206.84,191.71 207.42,167.28 212.15,150.00
             213.31,145.76 215.06,139.69 217.80,136.29
             220.78,132.58 224.62,130.29 229.00,128.64
             243.90,125.65 249.45,136.81 254.09,149.00 Z
           M 192.63,209.00
           C 207.85,229.39 229.03,262.95 229.00,289.00
             229.00,292.16 229.10,294.91 228.21,298.00
             224.10,312.28 210.69,314.15 198.00,314.00
             184.70,313.84 175.85,305.21 169.89,294.00
             161.36,277.97 158.22,256.95 156.91,239.00
             156.91,239.00 156.00,229.00 156.00,229.00
             156.00,229.00 156.00,200.00 156.00,200.00
             156.04,193.20 156.59,189.26 163.02,185.74
             175.38,183.04 186.22,200.42 192.63,209.00 Z
           M 308.00,198.00
           C 308.00,198.00 308.66,212.00 308.66,212.00
             308.66,212.00 308.02,219.00 308.02,219.00
             308.02,219.00 308.02,233.00 308.02,233.00
             308.02,233.00 306.13,252.00 306.13,252.00
             303.21,273.04 296.93,305.20 274.00,312.90
             269.83,314.29 265.34,314.05 261.00,314.00
             257.04,313.95 254.83,313.71 251.00,312.56
             233.30,307.26 233.14,289.96 236.89,275.00
             242.69,251.93 258.94,225.94 273.13,207.00
             279.09,199.04 285.53,189.41 295.00,185.65
             304.08,183.90 307.88,189.61 308.00,198.00 Z
           M 148.00,241.00
           C 148.02,252.28 147.60,262.85 150.01,274.00
             152.63,286.10 157.61,289.27 158.57,295.00
             160.74,307.92 143.28,311.21 134.00,310.99
             116.29,310.56 108.97,293.40 108.09,278.00
             107.37,265.18 114.57,248.03 122.24,238.00
             126.06,233.00 128.99,228.92 135.00,226.57
             147.00,224.44 147.98,231.02 148.00,241.00 Z
           M 346.55,244.00
           C 351.77,252.75 355.88,262.69 356.00,273.00
             356.16,287.16 353.65,304.45 338.00,309.89
             334.70,311.04 331.45,311.06 328.00,310.99
             319.73,310.80 307.32,307.99 306.25,298.00
             305.56,291.61 310.77,287.09 313.48,279.00
             315.70,272.37 316.99,258.14 317.00,251.00
             317.01,243.40 314.68,231.14 322.05,226.74
             334.02,223.81 341.15,234.95 346.55,244.00 Z" />
</svg>
